<mxfile host="Electron" modified="2025-08-14T22:10:50.166Z" agent="Mozilla/5.0 (Windows NT 10.0; Win64; x64) AppleWebKit/537.36 (KHTML, like Gecko) draw.io/24.5.3 Chrome/124.0.6367.207 Electron/30.0.6 Safari/537.36" etag="q0bFfzuhEUeehPxKvrsf" version="24.5.3" type="device">
  <diagram name="Page-1" id="LAXECOrcXvAPTMdicaLd">
    <mxGraphModel dx="2074" dy="1204" grid="1" gridSize="10" guides="1" tooltips="1" connect="1" arrows="1" fold="1" page="1" pageScale="1" pageWidth="1920" pageHeight="1200" math="0" shadow="0">
      <root>
        <mxCell id="0" />
        <mxCell id="1" parent="0" />
        <mxCell id="5yB_QdAaipWi_C__5OCs-32" value="Start" style="strokeWidth=2;html=1;shape=mxgraph.flowchart.start_1;whiteSpace=wrap;rounded=0;strokeColor=default;align=center;verticalAlign=middle;fontFamily=Helvetica;fontSize=12;fontColor=default;fillColor=none;" vertex="1" parent="1">
          <mxGeometry x="40" y="40" width="160" height="80" as="geometry" />
        </mxCell>
        <mxCell id="5yB_QdAaipWi_C__5OCs-46" style="edgeStyle=orthogonalEdgeStyle;rounded=0;orthogonalLoop=1;jettySize=auto;html=1;exitX=1;exitY=0.5;exitDx=0;exitDy=0;exitPerimeter=0;entryX=0;entryY=0.5;entryDx=0;entryDy=0;fontFamily=Helvetica;fontSize=12;fontColor=default;" edge="1" parent="1" source="5yB_QdAaipWi_C__5OCs-34" target="5yB_QdAaipWi_C__5OCs-36">
          <mxGeometry relative="1" as="geometry" />
        </mxCell>
        <mxCell id="5yB_QdAaipWi_C__5OCs-34" value="Intro Text + Explenation" style="strokeWidth=2;html=1;shape=mxgraph.flowchart.display;whiteSpace=wrap;rounded=0;strokeColor=default;align=center;verticalAlign=middle;fontFamily=Helvetica;fontSize=12;fontColor=default;fillColor=none;" vertex="1" parent="1">
          <mxGeometry x="280" y="40" width="160" height="80" as="geometry" />
        </mxCell>
        <mxCell id="5yB_QdAaipWi_C__5OCs-36" value="&lt;div&gt;Amount of Rooms and Floors&lt;/div&gt;&lt;div&gt;Player Name&lt;/div&gt;" style="html=1;strokeWidth=2;shape=manualInput;whiteSpace=wrap;rounded=1;size=26;arcSize=11;strokeColor=default;align=center;verticalAlign=middle;fontFamily=Helvetica;fontSize=12;fontColor=default;fillColor=none;" vertex="1" parent="1">
          <mxGeometry x="520" y="40" width="160" height="80" as="geometry" />
        </mxCell>
        <mxCell id="5yB_QdAaipWi_C__5OCs-38" value="Intro 2" style="strokeWidth=2;html=1;shape=mxgraph.flowchart.display;whiteSpace=wrap;rounded=0;strokeColor=default;align=center;verticalAlign=middle;fontFamily=Helvetica;fontSize=12;fontColor=default;fillColor=none;" vertex="1" parent="1">
          <mxGeometry x="760" y="40" width="160" height="80" as="geometry" />
        </mxCell>
        <mxCell id="5yB_QdAaipWi_C__5OCs-40" value="2 sec" style="strokeWidth=2;html=1;shape=mxgraph.flowchart.delay;whiteSpace=wrap;rounded=0;strokeColor=default;align=center;verticalAlign=middle;fontFamily=Helvetica;fontSize=12;fontColor=default;fillColor=none;" vertex="1" parent="1">
          <mxGeometry x="1000" y="40" width="160" height="80" as="geometry" />
        </mxCell>
        <mxCell id="5yB_QdAaipWi_C__5OCs-44" value="Print All" style="strokeWidth=2;html=1;shape=mxgraph.flowchart.display;whiteSpace=wrap;rounded=0;strokeColor=default;align=center;verticalAlign=middle;fontFamily=Helvetica;fontSize=12;fontColor=default;fillColor=none;" vertex="1" parent="1">
          <mxGeometry x="1480" y="680" width="160" height="80" as="geometry" />
        </mxCell>
        <mxCell id="5yB_QdAaipWi_C__5OCs-45" style="edgeStyle=orthogonalEdgeStyle;rounded=0;orthogonalLoop=1;jettySize=auto;html=1;exitX=1;exitY=0.5;exitDx=0;exitDy=0;exitPerimeter=0;entryX=0;entryY=0.5;entryDx=0;entryDy=0;entryPerimeter=0;fontFamily=Helvetica;fontSize=12;fontColor=default;" edge="1" parent="1" source="5yB_QdAaipWi_C__5OCs-32" target="5yB_QdAaipWi_C__5OCs-34">
          <mxGeometry relative="1" as="geometry" />
        </mxCell>
        <mxCell id="5yB_QdAaipWi_C__5OCs-47" style="edgeStyle=orthogonalEdgeStyle;rounded=0;orthogonalLoop=1;jettySize=auto;html=1;exitX=1;exitY=0.5;exitDx=0;exitDy=0;entryX=0;entryY=0.5;entryDx=0;entryDy=0;entryPerimeter=0;fontFamily=Helvetica;fontSize=12;fontColor=default;" edge="1" parent="1" source="5yB_QdAaipWi_C__5OCs-36" target="5yB_QdAaipWi_C__5OCs-38">
          <mxGeometry relative="1" as="geometry" />
        </mxCell>
        <mxCell id="5yB_QdAaipWi_C__5OCs-48" style="edgeStyle=orthogonalEdgeStyle;rounded=0;orthogonalLoop=1;jettySize=auto;html=1;exitX=1;exitY=0.5;exitDx=0;exitDy=0;exitPerimeter=0;entryX=0;entryY=0.5;entryDx=0;entryDy=0;entryPerimeter=0;fontFamily=Helvetica;fontSize=12;fontColor=default;" edge="1" parent="1" source="5yB_QdAaipWi_C__5OCs-38" target="5yB_QdAaipWi_C__5OCs-40">
          <mxGeometry relative="1" as="geometry" />
        </mxCell>
        <mxCell id="5yB_QdAaipWi_C__5OCs-139" style="edgeStyle=orthogonalEdgeStyle;rounded=0;orthogonalLoop=1;jettySize=auto;html=1;exitX=0.5;exitY=1;exitDx=0;exitDy=0;exitPerimeter=0;entryX=0.5;entryY=0;entryDx=0;entryDy=0;fontFamily=Helvetica;fontSize=12;fontColor=default;" edge="1" parent="1" source="5yB_QdAaipWi_C__5OCs-53" target="5yB_QdAaipWi_C__5OCs-138">
          <mxGeometry relative="1" as="geometry" />
        </mxCell>
        <mxCell id="5yB_QdAaipWi_C__5OCs-53" value="Standing on Stairs&lt;div&gt;Down?&lt;/div&gt;" style="strokeWidth=2;html=1;shape=mxgraph.flowchart.decision;whiteSpace=wrap;rounded=0;strokeColor=default;align=center;verticalAlign=middle;fontFamily=Helvetica;fontSize=12;fontColor=default;fillColor=none;" vertex="1" parent="1">
          <mxGeometry x="1240" y="1000" width="160" height="80" as="geometry" />
        </mxCell>
        <mxCell id="5yB_QdAaipWi_C__5OCs-56" value="Move player" style="html=1;strokeWidth=2;shape=manualInput;whiteSpace=wrap;rounded=1;size=26;arcSize=11;strokeColor=default;align=center;verticalAlign=middle;fontFamily=Helvetica;fontSize=12;fontColor=default;fillColor=none;" vertex="1" parent="1">
          <mxGeometry x="1480" y="840" width="160" height="80" as="geometry" />
        </mxCell>
        <mxCell id="5yB_QdAaipWi_C__5OCs-57" style="edgeStyle=orthogonalEdgeStyle;rounded=0;orthogonalLoop=1;jettySize=auto;html=1;exitX=0.5;exitY=1;exitDx=0;exitDy=0;exitPerimeter=0;entryX=0.5;entryY=0;entryDx=0;entryDy=0;fontFamily=Helvetica;fontSize=12;fontColor=default;" edge="1" parent="1" source="5yB_QdAaipWi_C__5OCs-44" target="5yB_QdAaipWi_C__5OCs-56">
          <mxGeometry relative="1" as="geometry" />
        </mxCell>
        <mxCell id="5yB_QdAaipWi_C__5OCs-147" style="edgeStyle=orthogonalEdgeStyle;rounded=0;orthogonalLoop=1;jettySize=auto;html=1;exitX=0.5;exitY=1;exitDx=0;exitDy=0;exitPerimeter=0;entryX=0.5;entryY=0;entryDx=0;entryDy=0;fontFamily=Helvetica;fontSize=12;fontColor=default;" edge="1" parent="1" source="5yB_QdAaipWi_C__5OCs-60" target="5yB_QdAaipWi_C__5OCs-146">
          <mxGeometry relative="1" as="geometry" />
        </mxCell>
        <mxCell id="5yB_QdAaipWi_C__5OCs-60" value="Standing on Stairs Up?" style="strokeWidth=2;html=1;shape=mxgraph.flowchart.decision;whiteSpace=wrap;rounded=0;strokeColor=default;align=center;verticalAlign=middle;fontFamily=Helvetica;fontSize=12;fontColor=default;fillColor=none;" vertex="1" parent="1">
          <mxGeometry x="1000" y="1000" width="160" height="80" as="geometry" />
        </mxCell>
        <mxCell id="5yB_QdAaipWi_C__5OCs-150" style="edgeStyle=orthogonalEdgeStyle;rounded=0;orthogonalLoop=1;jettySize=auto;html=1;exitX=0.5;exitY=1;exitDx=0;exitDy=0;exitPerimeter=0;entryX=0.5;entryY=0;entryDx=0;entryDy=0;fontFamily=Helvetica;fontSize=12;fontColor=default;" edge="1" parent="1" source="5yB_QdAaipWi_C__5OCs-61" target="5yB_QdAaipWi_C__5OCs-149">
          <mxGeometry relative="1" as="geometry" />
        </mxCell>
        <mxCell id="5yB_QdAaipWi_C__5OCs-61" value="Standing on Key?" style="strokeWidth=2;html=1;shape=mxgraph.flowchart.decision;whiteSpace=wrap;rounded=0;strokeColor=default;align=center;verticalAlign=middle;fontFamily=Helvetica;fontSize=12;fontColor=default;fillColor=none;" vertex="1" parent="1">
          <mxGeometry x="760" y="1000" width="160" height="80" as="geometry" />
        </mxCell>
        <mxCell id="5yB_QdAaipWi_C__5OCs-62" style="edgeStyle=orthogonalEdgeStyle;rounded=0;orthogonalLoop=1;jettySize=auto;html=1;exitX=0;exitY=0.5;exitDx=0;exitDy=0;exitPerimeter=0;entryX=1;entryY=0.5;entryDx=0;entryDy=0;entryPerimeter=0;fontFamily=Helvetica;fontSize=12;fontColor=default;" edge="1" parent="1" source="5yB_QdAaipWi_C__5OCs-53" target="5yB_QdAaipWi_C__5OCs-60">
          <mxGeometry relative="1" as="geometry" />
        </mxCell>
        <mxCell id="5yB_QdAaipWi_C__5OCs-63" style="edgeStyle=orthogonalEdgeStyle;rounded=0;orthogonalLoop=1;jettySize=auto;html=1;exitX=0;exitY=0.5;exitDx=0;exitDy=0;exitPerimeter=0;entryX=1;entryY=0.5;entryDx=0;entryDy=0;entryPerimeter=0;fontFamily=Helvetica;fontSize=12;fontColor=default;" edge="1" parent="1" source="5yB_QdAaipWi_C__5OCs-60" target="5yB_QdAaipWi_C__5OCs-61">
          <mxGeometry relative="1" as="geometry" />
        </mxCell>
        <mxCell id="5yB_QdAaipWi_C__5OCs-67" value="" style="group" vertex="1" connectable="0" parent="1">
          <mxGeometry x="1720" y="360" width="80" height="80" as="geometry" />
        </mxCell>
        <mxCell id="5yB_QdAaipWi_C__5OCs-64" value="" style="verticalLabelPosition=bottom;verticalAlign=top;html=1;shape=mxgraph.flowchart.on-page_reference;rounded=0;strokeColor=default;align=center;fontFamily=Helvetica;fontSize=12;fontColor=default;fillColor=none;" vertex="1" parent="5yB_QdAaipWi_C__5OCs-67">
          <mxGeometry width="80" height="80" as="geometry" />
        </mxCell>
        <mxCell id="5yB_QdAaipWi_C__5OCs-66" value="Loop" style="text;html=1;align=center;verticalAlign=middle;resizable=0;points=[];autosize=1;strokeColor=none;fillColor=none;fontFamily=Helvetica;fontSize=12;fontColor=default;" vertex="1" parent="5yB_QdAaipWi_C__5OCs-67">
          <mxGeometry x="15" y="25" width="50" height="30" as="geometry" />
        </mxCell>
        <mxCell id="5yB_QdAaipWi_C__5OCs-68" value="Is On Ladders?" style="strokeWidth=2;html=1;shape=mxgraph.flowchart.decision;whiteSpace=wrap;rounded=0;strokeColor=default;align=center;verticalAlign=middle;fontFamily=Helvetica;fontSize=12;fontColor=default;fillColor=none;" vertex="1" parent="1">
          <mxGeometry x="520" y="1000" width="160" height="80" as="geometry" />
        </mxCell>
        <mxCell id="5yB_QdAaipWi_C__5OCs-69" style="edgeStyle=orthogonalEdgeStyle;rounded=0;orthogonalLoop=1;jettySize=auto;html=1;exitX=0;exitY=0.5;exitDx=0;exitDy=0;exitPerimeter=0;entryX=1;entryY=0.5;entryDx=0;entryDy=0;entryPerimeter=0;fontFamily=Helvetica;fontSize=12;fontColor=default;" edge="1" parent="1" source="5yB_QdAaipWi_C__5OCs-61" target="5yB_QdAaipWi_C__5OCs-68">
          <mxGeometry relative="1" as="geometry" />
        </mxCell>
        <mxCell id="5yB_QdAaipWi_C__5OCs-90" style="edgeStyle=orthogonalEdgeStyle;rounded=0;orthogonalLoop=1;jettySize=auto;html=1;exitX=0.5;exitY=1;exitDx=0;exitDy=0;entryX=0.5;entryY=0;entryDx=0;entryDy=0;fontFamily=Helvetica;fontSize=12;fontColor=default;" edge="1" parent="1" source="5yB_QdAaipWi_C__5OCs-83" target="5yB_QdAaipWi_C__5OCs-89">
          <mxGeometry relative="1" as="geometry" />
        </mxCell>
        <mxCell id="5yB_QdAaipWi_C__5OCs-83" value="Generate Edges and Rooms&lt;div&gt;Place Doors&lt;/div&gt;" style="rounded=1;whiteSpace=wrap;html=1;absoluteArcSize=1;arcSize=14;strokeWidth=2;strokeColor=default;align=center;verticalAlign=middle;fontFamily=Helvetica;fontSize=12;fontColor=default;fillColor=none;" vertex="1" parent="1">
          <mxGeometry x="1240" y="360" width="160" height="80" as="geometry" />
        </mxCell>
        <mxCell id="5yB_QdAaipWi_C__5OCs-88" value="Save Floor" style="shape=internalStorage;whiteSpace=wrap;html=1;dx=15;dy=15;rounded=1;arcSize=8;strokeWidth=2;strokeColor=default;align=center;verticalAlign=middle;fontFamily=Helvetica;fontSize=12;fontColor=default;fillColor=none;" vertex="1" parent="1">
          <mxGeometry x="1240" y="680" width="160" height="75" as="geometry" />
        </mxCell>
        <mxCell id="5yB_QdAaipWi_C__5OCs-91" style="edgeStyle=orthogonalEdgeStyle;rounded=0;orthogonalLoop=1;jettySize=auto;html=1;exitX=0.5;exitY=1;exitDx=0;exitDy=0;entryX=0.5;entryY=0;entryDx=0;entryDy=0;fontFamily=Helvetica;fontSize=12;fontColor=default;" edge="1" parent="1" source="5yB_QdAaipWi_C__5OCs-89" target="5yB_QdAaipWi_C__5OCs-88">
          <mxGeometry relative="1" as="geometry" />
        </mxCell>
        <mxCell id="5yB_QdAaipWi_C__5OCs-89" value="Update Tiles for Floor" style="rounded=1;whiteSpace=wrap;html=1;absoluteArcSize=1;arcSize=14;strokeWidth=2;strokeColor=default;align=center;verticalAlign=middle;fontFamily=Helvetica;fontSize=12;fontColor=default;fillColor=none;" vertex="1" parent="1">
          <mxGeometry x="1240" y="520" width="160" height="80" as="geometry" />
        </mxCell>
        <mxCell id="5yB_QdAaipWi_C__5OCs-107" style="edgeStyle=orthogonalEdgeStyle;rounded=0;orthogonalLoop=1;jettySize=auto;html=1;exitX=1;exitY=0.5;exitDx=0;exitDy=0;exitPerimeter=0;entryX=0;entryY=0.5;entryDx=0;entryDy=0;fontFamily=Helvetica;fontSize=12;fontColor=default;" edge="1" parent="1" source="5yB_QdAaipWi_C__5OCs-95" target="5yB_QdAaipWi_C__5OCs-106">
          <mxGeometry relative="1" as="geometry" />
        </mxCell>
        <mxCell id="5yB_QdAaipWi_C__5OCs-95" value="Floors created&amp;nbsp;&lt;div&gt;=&amp;nbsp; Floors Amount ?&lt;/div&gt;" style="strokeWidth=2;html=1;shape=mxgraph.flowchart.decision;whiteSpace=wrap;rounded=0;strokeColor=default;align=center;verticalAlign=middle;fontFamily=Helvetica;fontSize=12;fontColor=default;fillColor=none;" vertex="1" parent="1">
          <mxGeometry x="1240" y="40" width="160" height="80" as="geometry" />
        </mxCell>
        <mxCell id="5yB_QdAaipWi_C__5OCs-99" style="edgeStyle=orthogonalEdgeStyle;rounded=0;orthogonalLoop=1;jettySize=auto;html=1;exitX=0.5;exitY=1;exitDx=0;exitDy=0;exitPerimeter=0;entryX=0.5;entryY=0;entryDx=0;entryDy=0;fontFamily=Helvetica;fontSize=12;fontColor=default;" edge="1" parent="1" source="5yB_QdAaipWi_C__5OCs-96" target="5yB_QdAaipWi_C__5OCs-83">
          <mxGeometry relative="1" as="geometry" />
        </mxCell>
        <mxCell id="5yB_QdAaipWi_C__5OCs-96" value="Rooms created&amp;nbsp;&lt;div&gt;= Rooms Amount ?&lt;/div&gt;" style="strokeWidth=2;html=1;shape=mxgraph.flowchart.decision;whiteSpace=wrap;rounded=0;strokeColor=default;align=center;verticalAlign=middle;fontFamily=Helvetica;fontSize=12;fontColor=default;fillColor=none;" vertex="1" parent="1">
          <mxGeometry x="1240" y="200" width="160" height="80" as="geometry" />
        </mxCell>
        <mxCell id="5yB_QdAaipWi_C__5OCs-97" style="edgeStyle=orthogonalEdgeStyle;rounded=0;orthogonalLoop=1;jettySize=auto;html=1;exitX=1;exitY=0.5;exitDx=0;exitDy=0;exitPerimeter=0;entryX=0;entryY=0.5;entryDx=0;entryDy=0;entryPerimeter=0;fontFamily=Helvetica;fontSize=12;fontColor=default;" edge="1" parent="1" source="5yB_QdAaipWi_C__5OCs-40" target="5yB_QdAaipWi_C__5OCs-95">
          <mxGeometry relative="1" as="geometry" />
        </mxCell>
        <mxCell id="5yB_QdAaipWi_C__5OCs-100" value="False" style="text;html=1;align=center;verticalAlign=middle;resizable=0;points=[];autosize=1;strokeColor=none;fillColor=none;fontFamily=Helvetica;fontSize=12;fontColor=default;" vertex="1" parent="1">
          <mxGeometry x="1320" y="280" width="50" height="30" as="geometry" />
        </mxCell>
        <mxCell id="5yB_QdAaipWi_C__5OCs-103" value="False" style="text;html=1;align=center;verticalAlign=middle;resizable=0;points=[];autosize=1;strokeColor=none;fillColor=none;fontFamily=Helvetica;fontSize=12;fontColor=default;" vertex="1" parent="1">
          <mxGeometry x="1320" y="120" width="50" height="30" as="geometry" />
        </mxCell>
        <mxCell id="5yB_QdAaipWi_C__5OCs-104" style="edgeStyle=orthogonalEdgeStyle;rounded=0;orthogonalLoop=1;jettySize=auto;html=1;exitX=0.5;exitY=1;exitDx=0;exitDy=0;exitPerimeter=0;entryX=0.5;entryY=0;entryDx=0;entryDy=0;entryPerimeter=0;fontFamily=Helvetica;fontSize=12;fontColor=default;" edge="1" parent="1" source="5yB_QdAaipWi_C__5OCs-95" target="5yB_QdAaipWi_C__5OCs-96">
          <mxGeometry relative="1" as="geometry" />
        </mxCell>
        <mxCell id="5yB_QdAaipWi_C__5OCs-105" style="edgeStyle=orthogonalEdgeStyle;rounded=0;orthogonalLoop=1;jettySize=auto;html=1;exitX=1;exitY=0.5;exitDx=0;exitDy=0;entryX=0.5;entryY=0;entryDx=0;entryDy=0;entryPerimeter=0;fontFamily=Helvetica;fontSize=12;fontColor=default;" edge="1" parent="1" source="5yB_QdAaipWi_C__5OCs-88" target="5yB_QdAaipWi_C__5OCs-96">
          <mxGeometry relative="1" as="geometry">
            <Array as="points">
              <mxPoint x="1440" y="718" />
              <mxPoint x="1440" y="160" />
              <mxPoint x="1320" y="160" />
            </Array>
          </mxGeometry>
        </mxCell>
        <mxCell id="5yB_QdAaipWi_C__5OCs-113" style="edgeStyle=orthogonalEdgeStyle;rounded=0;orthogonalLoop=1;jettySize=auto;html=1;exitX=0.5;exitY=1;exitDx=0;exitDy=0;entryX=0.5;entryY=0;entryDx=0;entryDy=0;fontFamily=Helvetica;fontSize=12;fontColor=default;" edge="1" parent="1" source="5yB_QdAaipWi_C__5OCs-106" target="5yB_QdAaipWi_C__5OCs-112">
          <mxGeometry relative="1" as="geometry" />
        </mxCell>
        <mxCell id="5yB_QdAaipWi_C__5OCs-106" value="Place Key and Stairs" style="rounded=1;whiteSpace=wrap;html=1;absoluteArcSize=1;arcSize=14;strokeWidth=2;strokeColor=default;align=center;verticalAlign=middle;fontFamily=Helvetica;fontSize=12;fontColor=default;fillColor=none;" vertex="1" parent="1">
          <mxGeometry x="1480" y="40" width="160" height="80" as="geometry" />
        </mxCell>
        <mxCell id="5yB_QdAaipWi_C__5OCs-108" value="True" style="text;html=1;align=center;verticalAlign=middle;resizable=0;points=[];autosize=1;strokeColor=none;fillColor=none;fontFamily=Helvetica;fontSize=12;fontColor=default;" vertex="1" parent="1">
          <mxGeometry x="1400" y="48" width="50" height="30" as="geometry" />
        </mxCell>
        <mxCell id="5yB_QdAaipWi_C__5OCs-110" style="edgeStyle=orthogonalEdgeStyle;rounded=0;orthogonalLoop=1;jettySize=auto;html=1;exitX=0;exitY=0.5;exitDx=0;exitDy=0;exitPerimeter=0;entryX=0;entryY=0.5;entryDx=0;entryDy=0;entryPerimeter=0;fontFamily=Helvetica;fontSize=12;fontColor=default;" edge="1" parent="1" source="5yB_QdAaipWi_C__5OCs-96" target="5yB_QdAaipWi_C__5OCs-95">
          <mxGeometry relative="1" as="geometry">
            <Array as="points">
              <mxPoint x="1200" y="240" />
              <mxPoint x="1200" y="80" />
            </Array>
          </mxGeometry>
        </mxCell>
        <mxCell id="5yB_QdAaipWi_C__5OCs-111" value="True" style="text;html=1;align=center;verticalAlign=middle;resizable=0;points=[];autosize=1;strokeColor=none;fillColor=none;fontFamily=Helvetica;fontSize=12;fontColor=default;" vertex="1" parent="1">
          <mxGeometry x="1200" y="210" width="50" height="30" as="geometry" />
        </mxCell>
        <mxCell id="5yB_QdAaipWi_C__5OCs-112" value="Update Tiles for Floor" style="rounded=1;whiteSpace=wrap;html=1;absoluteArcSize=1;arcSize=14;strokeWidth=2;strokeColor=default;align=center;verticalAlign=middle;fontFamily=Helvetica;fontSize=12;fontColor=default;fillColor=none;" vertex="1" parent="1">
          <mxGeometry x="1480" y="520" width="160" height="80" as="geometry" />
        </mxCell>
        <mxCell id="5yB_QdAaipWi_C__5OCs-114" style="edgeStyle=orthogonalEdgeStyle;rounded=0;orthogonalLoop=1;jettySize=auto;html=1;exitX=0.5;exitY=1;exitDx=0;exitDy=0;entryX=0.5;entryY=0;entryDx=0;entryDy=0;entryPerimeter=0;fontFamily=Helvetica;fontSize=12;fontColor=default;" edge="1" parent="1" source="5yB_QdAaipWi_C__5OCs-112" target="5yB_QdAaipWi_C__5OCs-44">
          <mxGeometry relative="1" as="geometry" />
        </mxCell>
        <mxCell id="5yB_QdAaipWi_C__5OCs-115" style="edgeStyle=orthogonalEdgeStyle;rounded=0;orthogonalLoop=1;jettySize=auto;html=1;exitX=0;exitY=0.5;exitDx=0;exitDy=0;exitPerimeter=0;entryX=0.5;entryY=0;entryDx=0;entryDy=0;fontFamily=Helvetica;fontSize=12;fontColor=default;" edge="1" parent="1" source="5yB_QdAaipWi_C__5OCs-64" target="5yB_QdAaipWi_C__5OCs-112">
          <mxGeometry relative="1" as="geometry" />
        </mxCell>
        <mxCell id="5yB_QdAaipWi_C__5OCs-117" style="edgeStyle=orthogonalEdgeStyle;rounded=0;orthogonalLoop=1;jettySize=auto;html=1;exitX=0;exitY=0.5;exitDx=0;exitDy=0;entryX=1;entryY=0.5;entryDx=0;entryDy=0;entryPerimeter=0;fontFamily=Helvetica;fontSize=12;fontColor=default;" edge="1" parent="1" source="5yB_QdAaipWi_C__5OCs-56" target="5yB_QdAaipWi_C__5OCs-116">
          <mxGeometry relative="1" as="geometry" />
        </mxCell>
        <mxCell id="5yB_QdAaipWi_C__5OCs-119" style="edgeStyle=orthogonalEdgeStyle;rounded=0;orthogonalLoop=1;jettySize=auto;html=1;exitX=0.5;exitY=1;exitDx=0;exitDy=0;exitPerimeter=0;entryX=0.5;entryY=0;entryDx=0;entryDy=0;entryPerimeter=0;fontFamily=Helvetica;fontSize=12;fontColor=default;" edge="1" parent="1" source="5yB_QdAaipWi_C__5OCs-116" target="5yB_QdAaipWi_C__5OCs-53">
          <mxGeometry relative="1" as="geometry" />
        </mxCell>
        <mxCell id="5yB_QdAaipWi_C__5OCs-120" value="" style="group" vertex="1" connectable="0" parent="1">
          <mxGeometry x="1080" y="840" width="80" height="80" as="geometry" />
        </mxCell>
        <mxCell id="5yB_QdAaipWi_C__5OCs-121" value="" style="verticalLabelPosition=bottom;verticalAlign=top;html=1;shape=mxgraph.flowchart.on-page_reference;rounded=0;strokeColor=default;align=center;fontFamily=Helvetica;fontSize=12;fontColor=default;fillColor=none;" vertex="1" parent="5yB_QdAaipWi_C__5OCs-120">
          <mxGeometry width="80" height="80" as="geometry" />
        </mxCell>
        <mxCell id="5yB_QdAaipWi_C__5OCs-122" value="Loop" style="text;html=1;align=center;verticalAlign=middle;resizable=0;points=[];autosize=1;strokeColor=none;fillColor=none;fontFamily=Helvetica;fontSize=12;fontColor=default;" vertex="1" parent="5yB_QdAaipWi_C__5OCs-120">
          <mxGeometry x="15" y="25" width="50" height="30" as="geometry" />
        </mxCell>
        <mxCell id="5yB_QdAaipWi_C__5OCs-123" style="edgeStyle=orthogonalEdgeStyle;rounded=0;orthogonalLoop=1;jettySize=auto;html=1;exitX=0;exitY=0.5;exitDx=0;exitDy=0;exitPerimeter=0;entryX=1;entryY=0.5;entryDx=0;entryDy=0;entryPerimeter=0;fontFamily=Helvetica;fontSize=12;fontColor=default;" edge="1" parent="1" source="5yB_QdAaipWi_C__5OCs-116" target="5yB_QdAaipWi_C__5OCs-121">
          <mxGeometry relative="1" as="geometry" />
        </mxCell>
        <mxCell id="5yB_QdAaipWi_C__5OCs-127" value="" style="group" vertex="1" connectable="0" parent="1">
          <mxGeometry x="1240" y="840" width="160" height="80" as="geometry" />
        </mxCell>
        <mxCell id="5yB_QdAaipWi_C__5OCs-116" value="&lt;span style=&quot;color: rgba(0, 0, 0, 0); font-family: monospace; font-size: 0px; text-align: start; text-wrap: nowrap;&quot;&gt;Che&lt;/span&gt;" style="strokeWidth=2;html=1;shape=mxgraph.flowchart.decision;whiteSpace=wrap;rounded=0;strokeColor=default;align=center;verticalAlign=middle;fontFamily=Helvetica;fontSize=12;fontColor=default;fillColor=none;" vertex="1" parent="5yB_QdAaipWi_C__5OCs-127">
          <mxGeometry width="160" height="80" as="geometry" />
        </mxCell>
        <mxCell id="5yB_QdAaipWi_C__5OCs-124" value="Is Move Valid?" style="text;html=1;align=center;verticalAlign=middle;resizable=0;points=[];autosize=1;strokeColor=none;fillColor=none;fontFamily=Helvetica;fontSize=12;fontColor=default;" vertex="1" parent="5yB_QdAaipWi_C__5OCs-127">
          <mxGeometry x="30" y="25" width="100" height="30" as="geometry" />
        </mxCell>
        <mxCell id="5yB_QdAaipWi_C__5OCs-128" value="False" style="text;html=1;align=center;verticalAlign=middle;resizable=0;points=[];autosize=1;strokeColor=none;fillColor=none;fontFamily=Helvetica;fontSize=12;fontColor=default;" vertex="1" parent="1">
          <mxGeometry x="1190" y="850" width="50" height="30" as="geometry" />
        </mxCell>
        <mxCell id="5yB_QdAaipWi_C__5OCs-129" value="False" style="text;html=1;align=center;verticalAlign=middle;resizable=0;points=[];autosize=1;strokeColor=none;fillColor=none;fontFamily=Helvetica;fontSize=12;fontColor=default;" vertex="1" parent="1">
          <mxGeometry x="1190" y="1010" width="50" height="30" as="geometry" />
        </mxCell>
        <mxCell id="5yB_QdAaipWi_C__5OCs-130" value="False" style="text;html=1;align=center;verticalAlign=middle;resizable=0;points=[];autosize=1;strokeColor=none;fillColor=none;fontFamily=Helvetica;fontSize=12;fontColor=default;" vertex="1" parent="1">
          <mxGeometry x="950" y="1010" width="50" height="30" as="geometry" />
        </mxCell>
        <mxCell id="5yB_QdAaipWi_C__5OCs-131" value="False" style="text;html=1;align=center;verticalAlign=middle;resizable=0;points=[];autosize=1;strokeColor=none;fillColor=none;fontFamily=Helvetica;fontSize=12;fontColor=default;" vertex="1" parent="1">
          <mxGeometry x="710" y="1010" width="50" height="30" as="geometry" />
        </mxCell>
        <mxCell id="5yB_QdAaipWi_C__5OCs-132" value="False" style="text;html=1;align=center;verticalAlign=middle;resizable=0;points=[];autosize=1;strokeColor=none;fillColor=none;fontFamily=Helvetica;fontSize=12;fontColor=default;" vertex="1" parent="1">
          <mxGeometry x="470" y="1010" width="50" height="30" as="geometry" />
        </mxCell>
        <mxCell id="5yB_QdAaipWi_C__5OCs-136" style="edgeStyle=orthogonalEdgeStyle;rounded=0;orthogonalLoop=1;jettySize=auto;html=1;exitX=0;exitY=0.5;exitDx=0;exitDy=0;exitPerimeter=0;entryX=1;entryY=0.5;entryDx=0;entryDy=0;entryPerimeter=0;fontFamily=Helvetica;fontSize=12;fontColor=default;" edge="1" parent="1" source="5yB_QdAaipWi_C__5OCs-68">
          <mxGeometry relative="1" as="geometry">
            <mxPoint x="440" y="1040" as="targetPoint" />
          </mxGeometry>
        </mxCell>
        <mxCell id="5yB_QdAaipWi_C__5OCs-138" value="Change Floor Down&lt;div&gt;&lt;br&gt;&lt;/div&gt;&lt;div&gt;Update Player Position&lt;br&gt;&lt;/div&gt;" style="rounded=1;whiteSpace=wrap;html=1;absoluteArcSize=1;arcSize=14;strokeWidth=2;strokeColor=default;align=center;verticalAlign=middle;fontFamily=Helvetica;fontSize=12;fontColor=default;fillColor=none;" vertex="1" parent="1">
          <mxGeometry x="1240" y="1160" width="160" height="80" as="geometry" />
        </mxCell>
        <mxCell id="5yB_QdAaipWi_C__5OCs-140" value="True" style="text;html=1;align=center;verticalAlign=middle;resizable=0;points=[];autosize=1;strokeColor=none;fillColor=none;fontFamily=Helvetica;fontSize=12;fontColor=default;" vertex="1" parent="1">
          <mxGeometry x="1320" y="920" width="50" height="30" as="geometry" />
        </mxCell>
        <mxCell id="5yB_QdAaipWi_C__5OCs-141" value="True" style="text;html=1;align=center;verticalAlign=middle;resizable=0;points=[];autosize=1;strokeColor=none;fillColor=none;fontFamily=Helvetica;fontSize=12;fontColor=default;" vertex="1" parent="1">
          <mxGeometry x="1320" y="1080" width="50" height="30" as="geometry" />
        </mxCell>
        <mxCell id="5yB_QdAaipWi_C__5OCs-142" value="" style="group" vertex="1" connectable="0" parent="1">
          <mxGeometry x="1520" y="1320" width="80" height="80" as="geometry" />
        </mxCell>
        <mxCell id="5yB_QdAaipWi_C__5OCs-143" value="" style="verticalLabelPosition=bottom;verticalAlign=top;html=1;shape=mxgraph.flowchart.on-page_reference;rounded=0;strokeColor=default;align=center;fontFamily=Helvetica;fontSize=12;fontColor=default;fillColor=none;" vertex="1" parent="5yB_QdAaipWi_C__5OCs-142">
          <mxGeometry width="80" height="80" as="geometry" />
        </mxCell>
        <mxCell id="5yB_QdAaipWi_C__5OCs-144" value="Loop" style="text;html=1;align=center;verticalAlign=middle;resizable=0;points=[];autosize=1;strokeColor=none;fillColor=none;fontFamily=Helvetica;fontSize=12;fontColor=default;" vertex="1" parent="5yB_QdAaipWi_C__5OCs-142">
          <mxGeometry x="15" y="25" width="50" height="30" as="geometry" />
        </mxCell>
        <mxCell id="5yB_QdAaipWi_C__5OCs-145" style="edgeStyle=orthogonalEdgeStyle;rounded=0;orthogonalLoop=1;jettySize=auto;html=1;exitX=0.5;exitY=1;exitDx=0;exitDy=0;entryX=0;entryY=0.5;entryDx=0;entryDy=0;entryPerimeter=0;fontFamily=Helvetica;fontSize=12;fontColor=default;" edge="1" parent="1" source="5yB_QdAaipWi_C__5OCs-138" target="5yB_QdAaipWi_C__5OCs-143">
          <mxGeometry relative="1" as="geometry" />
        </mxCell>
        <mxCell id="5yB_QdAaipWi_C__5OCs-146" value="Change Floor Up&lt;div&gt;&lt;br&gt;&lt;/div&gt;&lt;div&gt;Update Player Position&lt;br&gt;&lt;/div&gt;" style="rounded=1;whiteSpace=wrap;html=1;absoluteArcSize=1;arcSize=14;strokeWidth=2;strokeColor=default;align=center;verticalAlign=middle;fontFamily=Helvetica;fontSize=12;fontColor=default;fillColor=none;" vertex="1" parent="1">
          <mxGeometry x="1000" y="1160" width="160" height="80" as="geometry" />
        </mxCell>
        <mxCell id="5yB_QdAaipWi_C__5OCs-148" style="edgeStyle=orthogonalEdgeStyle;rounded=0;orthogonalLoop=1;jettySize=auto;html=1;exitX=0.5;exitY=1;exitDx=0;exitDy=0;entryX=0;entryY=0.5;entryDx=0;entryDy=0;entryPerimeter=0;fontFamily=Helvetica;fontSize=12;fontColor=default;" edge="1" parent="1" source="5yB_QdAaipWi_C__5OCs-146" target="5yB_QdAaipWi_C__5OCs-143">
          <mxGeometry relative="1" as="geometry" />
        </mxCell>
        <mxCell id="5yB_QdAaipWi_C__5OCs-151" style="edgeStyle=orthogonalEdgeStyle;rounded=0;orthogonalLoop=1;jettySize=auto;html=1;exitX=0.5;exitY=1;exitDx=0;exitDy=0;fontFamily=Helvetica;fontSize=12;fontColor=default;entryX=0;entryY=0.5;entryDx=0;entryDy=0;entryPerimeter=0;" edge="1" parent="1" source="5yB_QdAaipWi_C__5OCs-149" target="5yB_QdAaipWi_C__5OCs-143">
          <mxGeometry relative="1" as="geometry">
            <mxPoint x="840" y="1320" as="targetPoint" />
          </mxGeometry>
        </mxCell>
        <mxCell id="5yB_QdAaipWi_C__5OCs-149" value="Place Key Random&lt;div&gt;Print Message&lt;/div&gt;&lt;div&gt;&lt;br&gt;&lt;/div&gt;&lt;div&gt;Update Player Position&lt;/div&gt;" style="rounded=1;whiteSpace=wrap;html=1;absoluteArcSize=1;arcSize=14;strokeWidth=2;strokeColor=default;align=center;verticalAlign=middle;fontFamily=Helvetica;fontSize=12;fontColor=default;fillColor=none;" vertex="1" parent="1">
          <mxGeometry x="760" y="1160" width="160" height="80" as="geometry" />
        </mxCell>
        <mxCell id="5yB_QdAaipWi_C__5OCs-155" value="Print End Game Message" style="strokeWidth=2;html=1;shape=mxgraph.flowchart.display;whiteSpace=wrap;rounded=0;strokeColor=default;align=center;verticalAlign=middle;fontFamily=Helvetica;fontSize=12;fontColor=default;fillColor=none;" vertex="1" parent="1">
          <mxGeometry x="520" y="1160" width="160" height="80" as="geometry" />
        </mxCell>
        <mxCell id="5yB_QdAaipWi_C__5OCs-156" style="edgeStyle=orthogonalEdgeStyle;rounded=0;orthogonalLoop=1;jettySize=auto;html=1;exitX=0.5;exitY=1;exitDx=0;exitDy=0;exitPerimeter=0;entryX=0.5;entryY=0;entryDx=0;entryDy=0;entryPerimeter=0;fontFamily=Helvetica;fontSize=12;fontColor=default;" edge="1" parent="1" source="5yB_QdAaipWi_C__5OCs-68" target="5yB_QdAaipWi_C__5OCs-155">
          <mxGeometry relative="1" as="geometry" />
        </mxCell>
        <mxCell id="5yB_QdAaipWi_C__5OCs-157" value="End" style="strokeWidth=2;html=1;shape=mxgraph.flowchart.start_1;whiteSpace=wrap;rounded=0;strokeColor=default;align=center;verticalAlign=middle;fontFamily=Helvetica;fontSize=12;fontColor=default;fillColor=none;" vertex="1" parent="1">
          <mxGeometry x="520" y="1320" width="160" height="80" as="geometry" />
        </mxCell>
        <mxCell id="5yB_QdAaipWi_C__5OCs-158" style="edgeStyle=orthogonalEdgeStyle;rounded=0;orthogonalLoop=1;jettySize=auto;html=1;exitX=0.5;exitY=1;exitDx=0;exitDy=0;exitPerimeter=0;entryX=0.5;entryY=0;entryDx=0;entryDy=0;entryPerimeter=0;fontFamily=Helvetica;fontSize=12;fontColor=default;" edge="1" parent="1" source="5yB_QdAaipWi_C__5OCs-155" target="5yB_QdAaipWi_C__5OCs-157">
          <mxGeometry relative="1" as="geometry" />
        </mxCell>
        <mxCell id="5yB_QdAaipWi_C__5OCs-159" value="Update Player Postion" style="rounded=1;whiteSpace=wrap;html=1;absoluteArcSize=1;arcSize=14;strokeWidth=2;strokeColor=default;align=center;verticalAlign=middle;fontFamily=Helvetica;fontSize=12;fontColor=default;fillColor=none;" vertex="1" parent="1">
          <mxGeometry x="280" y="1000" width="160" height="80" as="geometry" />
        </mxCell>
        <mxCell id="5yB_QdAaipWi_C__5OCs-160" value="" style="group" vertex="1" connectable="0" parent="1">
          <mxGeometry x="120" y="1000" width="80" height="80" as="geometry" />
        </mxCell>
        <mxCell id="5yB_QdAaipWi_C__5OCs-161" value="" style="verticalLabelPosition=bottom;verticalAlign=top;html=1;shape=mxgraph.flowchart.on-page_reference;rounded=0;strokeColor=default;align=center;fontFamily=Helvetica;fontSize=12;fontColor=default;fillColor=none;" vertex="1" parent="5yB_QdAaipWi_C__5OCs-160">
          <mxGeometry width="80" height="80" as="geometry" />
        </mxCell>
        <mxCell id="5yB_QdAaipWi_C__5OCs-162" value="Loop" style="text;html=1;align=center;verticalAlign=middle;resizable=0;points=[];autosize=1;strokeColor=none;fillColor=none;fontFamily=Helvetica;fontSize=12;fontColor=default;" vertex="1" parent="5yB_QdAaipWi_C__5OCs-160">
          <mxGeometry x="15" y="25" width="50" height="30" as="geometry" />
        </mxCell>
        <mxCell id="5yB_QdAaipWi_C__5OCs-163" style="edgeStyle=orthogonalEdgeStyle;rounded=0;orthogonalLoop=1;jettySize=auto;html=1;exitX=0;exitY=0.5;exitDx=0;exitDy=0;entryX=1;entryY=0.5;entryDx=0;entryDy=0;entryPerimeter=0;fontFamily=Helvetica;fontSize=12;fontColor=default;" edge="1" parent="1" source="5yB_QdAaipWi_C__5OCs-159" target="5yB_QdAaipWi_C__5OCs-161">
          <mxGeometry relative="1" as="geometry" />
        </mxCell>
        <mxCell id="5yB_QdAaipWi_C__5OCs-164" value="True" style="text;html=1;align=center;verticalAlign=middle;resizable=0;points=[];autosize=1;strokeColor=none;fillColor=none;fontFamily=Helvetica;fontSize=12;fontColor=default;" vertex="1" parent="1">
          <mxGeometry x="1080" y="1080" width="50" height="30" as="geometry" />
        </mxCell>
        <mxCell id="5yB_QdAaipWi_C__5OCs-165" value="True" style="text;html=1;align=center;verticalAlign=middle;resizable=0;points=[];autosize=1;strokeColor=none;fillColor=none;fontFamily=Helvetica;fontSize=12;fontColor=default;" vertex="1" parent="1">
          <mxGeometry x="840" y="1080" width="50" height="30" as="geometry" />
        </mxCell>
        <mxCell id="5yB_QdAaipWi_C__5OCs-166" value="True" style="text;html=1;align=center;verticalAlign=middle;resizable=0;points=[];autosize=1;strokeColor=none;fillColor=none;fontFamily=Helvetica;fontSize=12;fontColor=default;" vertex="1" parent="1">
          <mxGeometry x="600" y="1080" width="50" height="30" as="geometry" />
        </mxCell>
      </root>
    </mxGraphModel>
  </diagram>
</mxfile>
